<svg id="Layer_1" data-name="Layer 1" xmlns="http://www.w3.org/2000/svg" viewBox="0 0 711 466"><defs><style>.cls-1{fill:#764abc;}.cls-2{fill:#fff;}.cls-3{fill:#53c1de;}.cls-4{fill:#41b883;}.cls-5{fill:#35495e;}.cls-6{fill:#8cc84b;}.cls-7{fill:#439934;}.cls-10,.cls-11,.cls-12,.cls-13,.cls-14,.cls-15,.cls-16,.cls-17,.cls-18,.cls-19,.cls-20,.cls-7,.cls-8,.cls-9{fill-rule:evenodd;}.cls-8{fill:#45a538;}.cls-9{fill:#46a037;}.cls-10{fill:#409433;}.cls-11{fill:#4faa41;}.cls-12{fill:#4aa73c;}.cls-13{fill:#57ae47;}.cls-14{fill:#60b24f;}.cls-15{fill:#a9aa88;}.cls-16{fill:#b6b598;}.cls-17{fill:#c2c1a7;}.cls-18{fill:#cecdb7;}.cls-19{fill:#dbdac7;}.cls-20{fill:#ebe9dc;}.cls-21{fill:#ffa000;}.cls-22{fill:#f57f17;}.cls-23{fill:#ffca28;}</style></defs><title>mernplusvue</title><path class="cls-1" d="M318.87,425.74A17.73,17.73,0,0,0,317,390.38h-.63a17.67,17.67,0,0,0-17.05,18.31,18.14,18.14,0,0,0,5.05,11.68c-10.73,21.15-27.14,36.62-51.76,49.56-16.73,8.84-34.1,12-51.46,9.79-14.2-1.9-25.25-8.21-32.19-18.63-10.1-15.46-11.05-32.2-2.53-48.92a74.3,74.3,0,0,1,21.47-25.26c-1.27-4.1-3.16-11.05-4.11-16.1-45.77,33.15-41,78-27.14,99.12,10.41,15.79,31.56,25.57,54.92,25.57a77.52,77.52,0,0,0,18.94-2.21c40.4-7.89,71-31.88,88.38-67.55Zm55.56-39.14c-24-28.1-59.34-43.57-99.75-43.57h-5.05a17.35,17.35,0,0,0-15.47-9.47h-.63a17.69,17.69,0,0,0,.63,35.36h.63a17.79,17.79,0,0,0,15.47-10.73h5.68a120.35,120.35,0,0,1,67.24,20.51c15.78,10.42,27.15,24,33.46,40.41,5.36,13.26,5.05,26.2-.63,37.25-8.84,16.73-23.68,25.88-43.25,25.88a80.74,80.74,0,0,1-30.93-6.63c-3.47,3.16-9.79,8.21-14.21,11.37,13.58,6.31,27.47,9.78,40.72,9.78,30.31,0,52.72-16.73,61.24-33.46,9.15-18.31,8.52-49.87-15.15-76.7ZM214.08,431.1a17.72,17.72,0,0,0,17.67,17h.63a17.68,17.68,0,0,0-.63-35.35h-.63a5.46,5.46,0,0,0-2.21.31C216,391.65,210.6,368.29,212.5,343c1.26-18.94,7.57-35.35,18.62-48.93,9.15-11.68,26.83-17.36,38.83-17.67,33.46-.63,47.66,41,48.61,57.76,4.1.95,11.05,3.16,15.78,4.74-3.79-51.14-35.35-77.65-65.66-77.65-28.41,0-54.6,20.51-65,50.82-14.52,40.4-5,79.23,12.62,109.85a14.21,14.21,0,0,0-2.2,9.16Z" transform="translate(-147 -260)"/><path class="cls-2" d="M464.62,264.75c-16.05,9.7-20.62,34.88-14.77,66.13-28.24,10.28-47.76,27.41-47.76,46.7,0,19.82,18.54,38.32,47.76,48.76-5.84,30.68-1,55.4,14.95,65,16.45,9.9,40.95,3.05,64.2-18.18,22.67,20.37,45.58,28.39,61.56,18.72C607,482,612,455.59,606,424c30.44-10.51,47.47-26.29,47.47-46.37,0-19.37-18.57-36.12-47.4-46.48,6.45-33,1-57.08-15.68-67.11-16.06-9.67-39.24-1.24-62.24,19.66-23.93-22.18-46.87-29-63.52-18.9" transform="translate(-147 -260)"/><path class="cls-3" d="M600,341.39c-2.38-.85-4.77-1.64-7.19-2.37.4-1.69.77-3.4,1.11-5.11,5.44-27.58,1.89-49.79-10.26-57.11-11.64-7-30.69.3-49.93,17.78q-2.83,2.6-5.55,5.33-1.83-1.82-3.7-3.57c-20.16-18.69-40.37-26.57-52.5-19.23-11.64,7-15.08,27.92-10.19,54.05q.74,3.88,1.65,7.72c-2.85.85-5.62,1.75-8.26,2.71-23.63,8.61-38.73,22.09-38.73,36.08,0,14.45,16.21,28.94,40.82,37.73q3,1.05,6,2c-.66,2.75-1.24,5.53-1.75,8.32-4.67,25.68-1,46.07,10.58,53.06,12,7.21,32.1-.21,51.69-18.08,1.54-1.42,3.1-2.92,4.65-4.49,2,2,4,3.89,6,5.75,19,17.05,37.71,23.93,49.3,16.93,12-7.24,15.87-29.15,10.82-55.8q-.58-3-1.34-6.23c1.41-.43,2.8-.88,4.15-1.35,25.59-8.85,42.24-23.17,42.24-37.81,0-14-15.58-27.61-39.69-36.28Z" transform="translate(-147 -260)"/><path class="cls-2" d="M594.4,406c-1.22.42-2.47.83-3.75,1.22a239.88,239.88,0,0,0-11.31-29.53,239.53,239.53,0,0,0,10.87-29.1c2.28.69,4.5,1.42,6.64,2.19,20.65,7.42,33.25,18.4,33.25,26.86,0,9-13.6,20.71-35.7,28.36Zm-9.17,19c2.23,11.78,2.55,22.44,1.07,30.77-1.33,7.48-4,12.47-7.31,14.47-7,4.25-22.08-1.28-38.3-15.86-1.86-1.67-3.74-3.45-5.61-5.34a234.49,234.49,0,0,0,18.71-24.81A214,214,0,0,0,584,419.36q.69,2.88,1.21,5.64Zm-92.72,44.5c-6.87,2.54-12.35,2.61-15.66.62-7-4.24-10-20.62-6-42.57.47-2.6,1-5.18,1.63-7.74a214.61,214.61,0,0,0,30.08,4.54,241.2,241.2,0,0,0,19.16,24.73q-2.07,2.1-4.25,4.09c-8.66,7.9-17.34,13.51-25,16.33ZM460.31,406c-10.89-3.88-19.88-8.93-26-14.44-5.53-4.95-8.33-9.87-8.33-13.86,0-8.49,12.12-19.31,32.33-26.67q3.81-1.38,7.69-2.53a243.12,243.12,0,0,0,10.88,29.44,249,249,0,0,0-11,29.86Q463,406.95,460.31,406Zm10.79-76.72c-4.19-22.39-1.41-39.28,5.61-43.52,7.46-4.52,24,1.92,41.38,18.06,1.12,1,2.23,2.11,3.35,3.23a237.37,237.37,0,0,0-19,24.57,223.86,223.86,0,0,0-29.79,4.84q-.86-3.57-1.54-7.19Zm96.3,24.83q-3.28-5.91-6.79-11.66A201,201,0,0,1,581,346.13c-1.92,6.44-4.32,13.17-7.14,20.08q-3.09-6.13-6.42-12.13Zm-39.27-39.95c4.4,5,8.8,10.54,13.14,16.57q-13.18-.66-26.39,0c4.34-6,8.78-11.52,13.25-16.56Zm-39.52,40q-3.28,6-6.3,12.06c-2.78-6.88-5.16-13.64-7.1-20.17a205.37,205.37,0,0,1,20.24-3.63Q491.9,348.19,488.61,354.14Zm7.05,59.51a193.8,193.8,0,0,1-20.58-3.45c2-6.65,4.4-13.55,7.24-20.58q3,6.11,6.33,12.06T495.66,413.65Zm32.73,28.26c-4.52-5.09-9-10.73-13.43-16.79q6.42.27,13.06.27,6.83,0,13.48-.31A209.91,209.91,0,0,1,528.39,441.91Zm45.52-52.65a218.29,218.29,0,0,1,7.5,20.51,197.21,197.21,0,0,1-20.83,3.71q3.54-5.87,6.86-11.87t6.47-12.35Zm-14.74,7.38q-5.07,9.19-10.71,18c-6.62.5-13.46.75-20.44.75s-13.7-.22-20.21-.67Q502,406,496.9,396.69t-9.52-18.78q4.39-9.59,9.49-18.79h0q5.08-9.21,10.83-18c6.63-.52,13.44-.79,20.32-.79s13.73.27,20.37.8q5.67,8.76,10.75,17.93t9.63,18.71q-4.47,9.62-9.59,18.87Zm19.68-111.21c7.47,4.5,10.38,22.66,5.68,46.47-.3,1.55-.64,3.09-1,4.63a219.5,219.5,0,0,0-29.85-4.92A232.33,232.33,0,0,0,534.81,307q2.51-2.52,5.13-4.91c16.49-15,31.89-20.9,38.91-16.67Z" transform="translate(-147 -260)"/><path class="cls-3" d="M528,356.85c11,0,19.94,9.32,19.94,20.82S539,398.49,528,398.49s-19.93-9.32-19.93-20.82S517,356.85,528,356.85" transform="translate(-147 -260)"/><path class="cls-4" d="M812.33,291H858L743.84,487.93,629.67,291H717l26.83,45.67L770.09,291Z" transform="translate(-147 -260)"/><path class="cls-4" d="M629.67,291,743.84,487.93,858,291H812.33L743.84,409.16,674.77,291Z" transform="translate(-147 -260)"/><path class="cls-5" d="M675.27,291l69.07,118.73L812.83,291H770.59l-26.25,45.67L717.51,291Z" transform="translate(-147 -260)"/><path class="cls-6" d="M266.58,528.13a16.73,16.73,0,0,1,16.34,0q37.29,21.07,74.61,42.14a15.37,15.37,0,0,1,7.75,13.23V668A15.53,15.53,0,0,1,357,681.56q-37.18,21-74.35,41.94a16.28,16.28,0,0,1-16.51-.46q-11.14-6.46-22.31-12.9c-1.52-.91-3.23-1.63-4.3-3.1,1-1.28,2.64-1.44,4-2a52.16,52.16,0,0,0,8.8-4.11,2.06,2.06,0,0,1,2.29.14c6.35,3.64,12.65,7.39,19,11,1.36.78,2.74-.26,3.9-.91q36.48-20.61,73-41.19a2.41,2.41,0,0,0,1.33-2.38q0-41.83,0-83.67a2.63,2.63,0,0,0-1.56-2.61q-37.05-20.87-74.08-41.75a2.58,2.58,0,0,0-2.91,0q-37.05,20.88-74.08,41.78a2.58,2.58,0,0,0-1.57,2.59q0,41.84,0,83.68A2.37,2.37,0,0,0,199,670q9.88,5.61,19.78,11.18c3.72,2,8.28,3.18,12.37,1.65a9.39,9.39,0,0,0,6.08-8.81c0-27.73,0-55.46,0-83.18a2.09,2.09,0,0,1,2.28-2.13c3.16,0,6.33,0,9.5,0a2.21,2.21,0,0,1,2.07,2.54c0,27.9,0,55.8,0,83.71,0,7.43-3.05,15.52-9.93,19.16-8.47,4.39-19,3.46-27.32-.75-7.24-3.62-14.16-7.89-21.28-11.76A15.51,15.51,0,0,1,184.22,668V583.5a15.41,15.41,0,0,1,8-13.4Q229.43,549.13,266.58,528.13Z" transform="translate(-147 -260)"/><path class="cls-6" d="M288.2,586.69c10.81-.69,22.38-.41,32.11,4.91,7.53,4.08,11.7,12.65,11.84,21a2.28,2.28,0,0,1-2.47,1.68c-3.14,0-6.27,0-9.41,0-1.33.05-2.1-1.18-2.27-2.35-.9-4-3.08-8-6.85-9.9-5.79-2.9-12.49-2.75-18.8-2.69-4.6.24-9.55.64-13.45,3.35-3,2.05-3.91,6.19-2.84,9.52,1,2.4,3.77,3.17,6,3.88,13,3.41,26.83,3.07,39.61,7.55C327,625.46,332.16,629,334,634.55c2.37,7.43,1.33,16.3-4,22.26-4.28,4.9-10.52,7.57-16.74,9A80.29,80.29,0,0,1,288,666.9c-7.9-.9-16.13-3-22.23-8.36-5.22-4.53-7.77-11.59-7.51-18.4a2.11,2.11,0,0,1,2.31-1.86c3.15,0,6.31,0,9.47,0a2.2,2.2,0,0,1,2.26,2.18c.58,3.82,2,7.82,5.34,10.08,6.42,4.14,14.47,3.86,21.82,4,6.09-.27,12.93-.36,17.9-4.38,2.62-2.3,3.39-6.14,2.69-9.44-.77-2.79-3.69-4.09-6.2-4.94-12.85-4.07-26.81-2.59-39.55-7.19-5.17-1.83-10.17-5.28-12.15-10.59-2.77-7.52-1.5-16.82,4.33-22.58s13.9-7.93,21.71-8.72Z" transform="translate(-147 -260)"/><path class="cls-7" d="M573.6,560.57a106.63,106.63,0,0,1,7.13,29.16,115.44,115.44,0,0,1-2.34,37,8.94,8.94,0,0,1-.37,1,20.84,20.84,0,0,0-2.74,0c-7.56,1.07-15.12,2.18-22.67,3.28-7.81,1.13-15.63,2.22-23.43,3.44-2.76.43-6.18-.09-7.29,3.34,0,.1-.35.11-.53.17l.37-20.5q-.19-24.74-.38-49.47l3.64-.56q8.93-1.32,17.85-2.61c7.11-1,14.22-2,21.33-3C567.31,561.39,570.45,561,573.6,560.57Z" transform="translate(-147 -260)"/><path class="cls-8" d="M513.84,697.72c-3.84-3-7.81-5.8-11.49-8.91-19.8-16.77-34.28-36.51-41.41-60.31a88.74,88.74,0,0,1-3.69-20,99.59,99.59,0,0,1-.35-14.23c1-12.53,3-24.94,7.1-37l.22-.28a5.75,5.75,0,0,1,1.17,1.43q6,15.84,11.91,31.72Q495.9,640,514.49,689.9a8.07,8.07,0,0,0,1.33,1.76Z" transform="translate(-147 -260)"/><path class="cls-9" d="M573.6,560.57c-3.15.42-6.29.82-9.43,1.25q-10.67,1.48-21.33,3c-6,.85-11.9,1.74-17.86,2.62l-3.63.56,0-2.14c-.12-1.75-.33-3.5-.35-5.25-.16-11.17-.26-22.35-.41-33.52q-.15-10.49-.4-21c-.1-4.34-.2-8.69-.42-13-.12-2.33-.53-4.65-.7-7-.1-1.34,0-2.69.06-4,1.86,3.23,3.67,6.49,5.58,9.69,3,5.07,7.82,8.8,12.14,12.87A141.49,141.49,0,0,1,573.6,560.57Z" transform="translate(-147 -260)"/><path class="cls-10" d="M521.35,638c.19-.06.51-.07.54-.17,1.11-3.43,4.53-2.92,7.29-3.34,7.8-1.22,15.62-2.31,23.42-3.45q11.34-1.65,22.67-3.27a21,21,0,0,1,2.75,0c-1.42,4.53-2.53,9.15-4.32,13.56a145.13,145.13,0,0,1-7.11,14.64,100.25,100.25,0,0,1-14.43,19.92,191.66,191.66,0,0,1-14.09,13.35c-2.69,2.38-5.86,4.32-8.81,6.45l-.77-.47L525.73,693l-2.85-5.61a76.61,76.61,0,0,1-3.16-20.07l0-1.14.39-5c.13-1.69.3-3.37.38-5.07.29-6.08.54-12.16.81-18.24Z" transform="translate(-147 -260)"/><path class="cls-11" d="M521.35,638c-.27,6.08-.52,12.16-.81,18.24-.08,1.7-.25,3.38-.38,5.07l-1.74.59c-3.86-10.2-7.72-20.29-11.49-30.42-6.25-16.74-12.42-33.51-18.66-50.26q-7.54-20.28-15.21-40.52a6.85,6.85,0,0,0-1.41-1.68l11.12-18.37a10.18,10.18,0,0,1,1.13,1.8q7.71,20.51,15.37,41,9.93,26.71,19.83,53.44a18.57,18.57,0,0,0,1.11,2.16l1.52-1.59Q521.54,627.71,521.35,638Z" transform="translate(-147 -260)"/><path class="cls-12" d="M471.66,539c.47.56,1.16,1,1.4,1.68q7.65,20.25,15.21,40.53c6.24,16.74,12.41,33.51,18.66,50.26,3.77,10.12,7.63,20.21,11.5,30.41l1.73-.59-.39,5-.35,1.14c-.6,5.42-1.11,10.85-1.85,16.26-.37,2.7-1.15,5.36-1.75,8a8,8,0,0,1-1.32-1.77Q495.87,640,477.3,590.16q-5.91-15.87-11.9-31.72a6,6,0,0,0-1.18-1.43Z" transform="translate(-147 -260)"/><path class="cls-13" d="M521.73,617.45l-1.52,1.6a21.57,21.57,0,0,1-1.12-2.17q-9.92-26.71-19.82-53.44-7.63-20.52-15.37-41a9.76,9.76,0,0,0-1.13-1.79l13.75-16.25a6.4,6.4,0,0,1,1.28,1.57q5.73,15.06,11.36,30.14c3.52,9.39,7,18.8,10.53,28.18.24.62,1.07,1.07,1.62,1.6l0,2.13Z" transform="translate(-147 -260)"/><path class="cls-14" d="M521.32,565.85c-.56-.53-1.38-1-1.62-1.6-3.56-9.38-7-18.78-10.53-28.17Q503.53,521,497.8,505.94a6.59,6.59,0,0,0-1.27-1.57c4.47-3.94,8.8-8,13.46-11.76,4.13-3.33,7.46-6.91,7.61-12.17a5.76,5.76,0,0,1,.33-1.05l1.18,2.66c0,1.35-.17,2.7-.07,4,.17,2.33.59,4.65.71,7,.22,4.34.32,8.69.42,13,.15,7,.3,14,.39,21,.16,11.17.26,22.35.41,33.52C521,562.35,521.2,564.1,521.32,565.85Z" transform="translate(-147 -260)"/><path class="cls-15" d="M515.82,691.66c.59-2.68,1.38-5.34,1.75-8,.74-5.4,1.24-10.83,1.85-16.25l.15,0,.15,0a76.61,76.61,0,0,0,3.16,20.07,6.18,6.18,0,0,0-1.17,1.43c-1.65,4.18-3.21,8.39-4.87,12.58a6.49,6.49,0,0,1-1.3,1.51l-1.7-5.23Z" transform="translate(-147 -260)"/><path class="cls-16" d="M515.54,703c.44-.51,1.08-1,1.3-1.52,1.66-4.18,3.22-8.4,4.87-12.58a6,6,0,0,1,1.18-1.43l2.85,5.62a10.06,10.06,0,0,0-1.66,2.16l-5.46,14.4c-.22.58-1,1-1.5,1.47Z" transform="translate(-147 -260)"/><path class="cls-17" d="M517.12,711.08c.51-.48,1.28-.89,1.5-1.47l5.46-14.4a9.52,9.52,0,0,1,1.66-2.16l2.76,2.11c-1.34,1.19-2.08,2.55-1.63,4.28L526,701.9c-.38.43-.93.79-1.12,1.28-1.91,4.9-3.73,9.83-5.65,14.73a6.64,6.64,0,0,1-1.39,1.65l-.75-8.48Z" transform="translate(-147 -260)"/><path class="cls-18" d="M517.87,719.56a7.11,7.11,0,0,0,1.4-1.65c1.91-4.9,3.73-9.83,5.64-14.73.19-.49.74-.85,1.12-1.28l-1.15,11.31c-.31.32-.76.6-.91,1-1.3,3.29-2.54,6.6-3.85,9.9a11.65,11.65,0,0,1-1.19,1.91c-.36-.42-1-.83-1-1.27C517.78,723,517.86,721.29,517.87,719.56Z" transform="translate(-147 -260)"/><path class="cls-19" d="M518.94,681.39a9.24,9.24,0,0,0,1-1.42c1.08-2.43,2.09-4.88,3.17-7.32.12-.27.49-.48.74-.72l0,5.49-2.28,4.72Z" transform="translate(-147 -260)"/><path class="cls-20" d="M521.58,682.14l2.28-4.72.47,5.58Z" transform="translate(-147 -260)"/><path class="cls-18" d="M526.87,699.44c-.45-1.73.29-3.09,1.63-4.28l.76.47Z" transform="translate(-147 -260)"/><path class="cls-11" d="M519.72,667.37l-.15,0-.15,0,.35-1.14Z" transform="translate(-147 -260)"/><path class="cls-21" d="M767.53,558.11l-23.85,22.2-22.13-44.66L733,510c2.89-5.12,7.62-5.19,10.51,0Z" transform="translate(-147 -260)"/><path class="cls-22" d="M743.69,580.3l-89.19,83,67.06-127.61Z" transform="translate(-147 -260)"/><path class="cls-23" d="M793.67,524.16c4.27-4.07,8.67-2.7,9.78,3.08l23.19,134.9-76.91,46.17c-2.7,1.51-9.85,2.1-9.85,2.1s-6.5-.79-9-2.16l-76.38-45Z" transform="translate(-147 -260)"/><path class="cls-21" d="M721.56,535.65,654.5,663.26l29.88-186.52c1.13-5.78,4.4-6.37,7.36-1.25Z" transform="translate(-147 -260)"/></svg>